<svg width="155" height="153" viewBox="0 0 155 153" fill="none" xmlns="http://www.w3.org/2000/svg">
<path d="M70 79C71.6663 83.2463 73.4895 84.0119 77.5 84" stroke="black"/>
<path d="M80.5 31C92.5382 61.1335 90.6154 67.7719 72 61.5" stroke="black"/>
<path d="M94 32L108.5 30.5" stroke="black"/>
<path d="M67 31L52 33" stroke="black"/>
<path d="M114 79V100" stroke="black"/>
<path d="M118.5 88C118.932 96.2011 118.915 100.799 118.5 109" stroke="black"/>
<path d="M124 92C124.423 99.0291 124.418 102.971 124 110" stroke="black"/>
<path d="M130 90.5C130.47 98.2055 130.501 101.998 130 107.5" stroke="black"/>
<path d="M135.5 90C136.423 99.3889 136.294 104.094 135.5 112" stroke="black"/>
<path d="M140.5 88.5C140.5 88.5 140.903 100.49 140.5 107" stroke="black"/>
<path d="M153.5 54.5C154.361 75.3327 153.931 86.831 151.5 107" stroke="black"/>
<path d="M14.5 146.5C29.8908 121.557 41.2494 113.197 66.5 108.5C67.3131 116.411 63.0549 126.54 77.5 127.5C91.9451 128.46 85.4562 119.541 85.5 107C109.037 114.838 120.222 124.467 136 152.5C85.6678 145.246 59.1527 144.081 14.5 146.5Z" fill="#D0E4F7"/>
<path d="M41 77C54.8213 92.8161 63.3617 97.9611 80 100.5" stroke="black"/>
<path d="M67.5 116C69.0794 109.7 69.3977 106.046 67.5 99" stroke="black"/>
<path d="M123 5C118.103 34.2667 116.125 50.3608 114 78.5C102.816 92.6529 95.8581 97.5726 82 100V109C85.9279 120.879 80.0459 123.904 72 120" stroke="black"/>
<path d="M101 1.5L97 23" stroke="black"/>
<path d="M109.5 1L105 22.5" stroke="black"/>
<path d="M117.5 2L113 22.5" stroke="black"/>
<path d="M78.5 0.5C77.0208 5.46017 76.1363 10.3898 74.5 21.5" stroke="black"/>
<path d="M84.5 0.5C82.2463 11.1629 81.7449 14.4282 80.5 21.5" stroke="black"/>
<path d="M92.5 0.5C90.0875 13.5801 89.7877 16.0011 89 21.5" stroke="black"/>
<path d="M56.5 4.5C43.9873 46.0372 39.9742 70.0479 37.5 114" stroke="black"/>
<path d="M8.5 95V117.5" stroke="black"/>
<path d="M15.5 94.5V118.5" stroke="black"/>
<path d="M21.5 92V116" stroke="black"/>
<path d="M29 95.5V115" stroke="black"/>
<path d="M5.50001 45C5.50001 45 3.40254 57.1539 2.50001 65C0.28994 84.2131 1.00001 114.5 1.00001 114.5" stroke="black"/>
<path d="M64.5 1C62.6353 8.72082 61.787 13.2353 60.5 21.5" stroke="black"/>
<path d="M71.5 0.999985C71.5 0.999985 68.0596 14.2015 66.5 22" stroke="black"/>
<ellipse cx="99" cy="44.5" rx="2" ry="5.5" fill="black"/>
<ellipse cx="67" cy="44" rx="2" ry="5" fill="black"/>
</svg>
